<svg width="72" height="94" viewBox="0 0 72 94" fill="none" xmlns="http://www.w3.org/2000/svg">
<path d="M38.722 13.4701V18.0959L7.80603 0.209739C6.67621 -0.407024 5.34094 0.415321 5.34094 1.64885V58.4939L64.1944 92.7242C65.5297 93.5466 67.2757 93.5466 68.611 92.6214L69.8435 91.7991C70.9734 91.0795 71.6923 89.846 71.6923 88.4069V32.1786C71.6923 30.6367 70.8706 29.0948 69.4327 28.2725L40.9817 11.8254C40.0573 11.4143 38.722 12.2366 38.722 13.4701Z" fill="#192A82"/>
<path d="M7.18957 0.826071L38.1056 18.7122V17.7871L7.90849 0.312102C7.08681 -0.0990734 6.16243 0.106514 5.75159 0.826071C6.16243 0.51769 6.67601 0.51769 7.18957 0.826071Z" fill="url(#paint0_radial_35_364)"/>
<path d="M69.6377 28.4779L41.1867 12.0309C40.365 11.6197 39.4406 11.8253 39.0298 12.5448C39.4406 12.3392 40.0569 12.3392 40.5705 12.6476L69.0214 29.0946C70.3566 29.917 71.281 31.3561 71.281 33.0008V89.229C71.281 90.257 70.8702 91.1821 70.2539 91.9017C71.3837 91.1821 72 89.9486 72 88.6123V32.384C71.8973 30.7393 70.9729 29.3002 69.6377 28.4779Z" fill="url(#paint1_radial_35_364)"/>
<path d="M2.36218 55.1023L67.6864 92.8276V45.6453L2.36218 7.91992V55.1023Z" fill="#E6CFC8"/>
<path d="M2.8759 57.1578L64.3998 92.7245C65.6323 93.444 67.2757 93.444 68.611 92.8273C67.5839 93.2384 66.5567 92.5189 66.5567 91.3881V49.1399C66.5567 47.598 65.735 46.056 64.2971 45.2337L2.46503 9.56423C1.33521 8.94747 0 9.76983 0 11.0034V52.3265C0 54.1768 1.12981 56.1299 2.8759 57.1578Z" fill="#ECF4FF"/>
<path d="M68.5083 92.724C67.4812 93.1351 66.4541 92.4156 66.4541 91.2848V49.0366C66.4541 47.4947 65.6325 45.9527 64.1945 45.1304L2.36245 9.46093C1.64347 9.04975 0.821783 9.25533 0.308228 9.76929C0.719072 9.56371 1.23259 9.56371 1.74614 9.87209L63.5782 45.5416C64.9135 46.3639 65.8379 47.803 65.8379 49.4477V91.696C65.8379 92.5184 66.4541 93.1351 67.1731 93.2379C67.6866 93.1351 68.0975 93.0323 68.5083 92.724Z" fill="url(#paint2_radial_35_364)"/>
<path d="M36.7707 43.7943L27.7321 38.5518V49.3451L21.364 45.6445L32.2514 68.362L43.2415 58.2882L36.7707 54.5876V43.7943Z" fill="#192A82"/>
<path d="M27.7318 37.3184L36.7704 42.5609V40.1966L27.7318 34.9541V37.3184Z" fill="#192A82"/>
<path d="M36.7704 38.5519V37.4212L27.7318 32.1787V33.4122L36.7704 38.5519Z" fill="#192A82"/>
<defs>
<radialGradient id="paint0_radial_35_364" cx="0" cy="0" r="1" gradientUnits="userSpaceOnUse" gradientTransform="translate(21.8503 9.31099) scale(13.196 13.2067)">
<stop stop-color="white"/>
<stop offset="1"/>
</radialGradient>
<radialGradient id="paint1_radial_35_364" cx="0" cy="0" r="1" gradientUnits="userSpaceOnUse" gradientTransform="translate(48.6684 38.0763) scale(23.788 23.8072)">
<stop stop-color="white"/>
<stop offset="1"/>
</radialGradient>
<radialGradient id="paint2_radial_35_364" cx="0" cy="0" r="1" gradientUnits="userSpaceOnUse" gradientTransform="translate(25.3373 51.4361) scale(38.3116 38.3425)">
<stop stop-color="white"/>
<stop offset="1"/>
</radialGradient>
</defs>
</svg>
