<svg width="61" height="61" viewBox="0 0 61 61" fill="none" xmlns="http://www.w3.org/2000/svg">
<g clip-path="url(#clip0_31_1636)">
<mask id="mask0_31_1636" style="mask-type:luminance" maskUnits="userSpaceOnUse" x="0" y="0" width="61" height="61">
<path d="M60.75 0.98999H0.75V60.99H60.75V0.98999Z" fill="white"/>
</mask>
<g mask="url(#mask0_31_1636)">
<path d="M54.1854 49.7177C58.2925 44.5849 60.75 38.0749 60.75 30.99C60.75 14.4214 47.3186 0.98999 30.75 0.98999C14.1814 0.98999 0.75 14.4214 0.75 30.99C0.75 38.0749 3.20754 44.5849 7.31461 49.7177H54.1854Z" fill="#2A8AFF"/>
<path d="M54.1875 3.33374V49.7177C48.6902 56.5884 40.234 60.99 30.75 60.99C23.6554 60.99 17.1363 58.5267 12 54.4099C10.2703 53.0236 8.69767 51.4486 7.3125 49.7177V18.5681L20.2031 13.8806L24.8906 0.98999H51.8438C53.1387 0.98999 54.1875 2.03882 54.1875 3.33374Z" fill="#D9EAFC"/>
<path d="M24.8906 13.8806V19.74C24.8906 21.0349 23.8418 22.0837 22.5469 22.0837H17.8594C14.6238 22.0837 12 24.7075 12 27.9431V54.4099C10.2703 53.0236 8.69767 51.4486 7.3125 49.7177V18.5681L24.8906 13.8806Z" fill="#C3DDF4"/>
<path d="M24.8906 0.98999V16.2244C24.8906 17.5188 23.8413 18.5681 22.5469 18.5681H7.3125L24.8906 0.98999Z" fill="white"/>
<path d="M27.2344 22.2009H54.1875C55.4819 22.2009 56.5312 23.2503 56.5312 24.5447V37.4354C56.5312 38.7298 55.4819 39.7791 54.1875 39.7791H27.2344C25.9399 39.7791 24.8906 38.7298 24.8906 37.4354V24.5447C24.8906 23.2503 25.9399 22.2009 27.2344 22.2009Z" fill="#2A8AFF"/>
<path d="M29.7518 37.4354V24.5447C29.7518 23.2503 30.8011 22.2009 32.0956 22.2009H27.2344C25.9399 22.2009 24.8906 23.2503 24.8906 24.5447V37.4354C24.8906 38.7298 25.9399 39.7791 27.2344 39.7791H32.0956C30.8011 39.7791 29.7518 38.7298 29.7518 37.4354Z" fill="#2A8AFF"/>
</g>
<path d="M27.26 35V26.6H30.8C31.696 26.6 32.484 26.776 33.164 27.128C33.852 27.48 34.384 27.972 34.76 28.604C35.144 29.236 35.336 29.968 35.336 30.8C35.336 31.632 35.144 32.364 34.76 32.996C34.384 33.628 33.852 34.12 33.164 34.472C32.484 34.824 31.696 35 30.8 35H27.26ZM28.46 33.956H30.728C31.424 33.956 32.024 33.824 32.528 33.56C33.04 33.296 33.436 32.928 33.716 32.456C33.996 31.976 34.136 31.424 34.136 30.8C34.136 30.168 33.996 29.616 33.716 29.144C33.436 28.672 33.04 28.304 32.528 28.04C32.024 27.776 31.424 27.644 30.728 27.644H28.46V33.956ZM40.9661 35.096C40.3261 35.096 39.7301 34.988 39.1781 34.772C38.6341 34.556 38.1621 34.256 37.7621 33.872C37.3621 33.48 37.0501 33.024 36.8261 32.504C36.6021 31.984 36.4901 31.416 36.4901 30.8C36.4901 30.184 36.6021 29.616 36.8261 29.096C37.0501 28.576 37.3621 28.124 37.7621 27.74C38.1621 27.348 38.6341 27.044 39.1781 26.828C39.7221 26.612 40.3181 26.504 40.9661 26.504C41.6061 26.504 42.1941 26.612 42.7301 26.828C43.2741 27.036 43.7461 27.336 44.1461 27.728C44.5541 28.112 44.8661 28.564 45.0821 29.084C45.3061 29.604 45.4181 30.176 45.4181 30.8C45.4181 31.424 45.3061 31.996 45.0821 32.516C44.8661 33.036 44.5541 33.492 44.1461 33.884C43.7461 34.268 43.2741 34.568 42.7301 34.784C42.1941 34.992 41.6061 35.096 40.9661 35.096ZM40.9661 34.028C41.4301 34.028 41.8581 33.948 42.2501 33.788C42.6501 33.628 42.9941 33.404 43.2821 33.116C43.5781 32.82 43.8061 32.476 43.9661 32.084C44.1341 31.692 44.2181 31.264 44.2181 30.8C44.2181 30.336 44.1341 29.908 43.9661 29.516C43.8061 29.124 43.5781 28.784 43.2821 28.496C42.9941 28.2 42.6501 27.972 42.2501 27.812C41.8581 27.652 41.4301 27.572 40.9661 27.572C40.4941 27.572 40.0581 27.652 39.6581 27.812C39.2661 27.972 38.9221 28.2 38.6261 28.496C38.3301 28.784 38.0981 29.124 37.9301 29.516C37.7701 29.908 37.6901 30.336 37.6901 30.8C37.6901 31.264 37.7701 31.692 37.9301 32.084C38.0981 32.476 38.3301 32.82 38.6261 33.116C38.9221 33.404 39.2661 33.628 39.6581 33.788C40.0581 33.948 40.4941 34.028 40.9661 34.028ZM51.0082 35.096C50.3682 35.096 49.7762 34.992 49.2322 34.784C48.6962 34.568 48.2282 34.268 47.8282 33.884C47.4362 33.492 47.1282 33.036 46.9042 32.516C46.6802 31.996 46.5682 31.424 46.5682 30.8C46.5682 30.176 46.6802 29.604 46.9042 29.084C47.1282 28.564 47.4402 28.112 47.8402 27.728C48.2402 27.336 48.7082 27.036 49.2442 26.828C49.7882 26.612 50.3802 26.504 51.0202 26.504C51.6682 26.504 52.2642 26.616 52.8082 26.84C53.3602 27.056 53.8282 27.38 54.2122 27.812L53.4322 28.568C53.1122 28.232 52.7522 27.984 52.3522 27.824C51.9522 27.656 51.5242 27.572 51.0682 27.572C50.5962 27.572 50.1562 27.652 49.7482 27.812C49.3482 27.972 49.0002 28.196 48.7042 28.484C48.4082 28.772 48.1762 29.116 48.0082 29.516C47.8482 29.908 47.7682 30.336 47.7682 30.8C47.7682 31.264 47.8482 31.696 48.0082 32.096C48.1762 32.488 48.4082 32.828 48.7042 33.116C49.0002 33.404 49.3482 33.628 49.7482 33.788C50.1562 33.948 50.5962 34.028 51.0682 34.028C51.5242 34.028 51.9522 33.948 52.3522 33.788C52.7522 33.62 53.1122 33.364 53.4322 33.02L54.2122 33.776C53.8282 34.208 53.3602 34.536 52.8082 34.76C52.2642 34.984 51.6642 35.096 51.0082 35.096Z" fill="white"/>
</g>
<defs>
<clipPath id="clip0_31_1636">
<rect width="60" height="60" fill="white" transform="translate(0.75 0.98999)"/>
</clipPath>
</defs>
</svg>
